<svg width="693" height="693" viewBox="0 0 693 693" fill="none" xmlns="http://www.w3.org/2000/svg">
<path d="M131.116 460.152L129.591 473.042L120.582 496.465L128.898 498.96L135.274 474.566L136.105 460.706L131.116 460.152Z" fill="#F4F4F4"/>
<path d="M111.85 522.245L115.87 563.132L114.484 599.029H128.482L129.175 596.396L119.612 595.01L124.74 563.27L129.314 523.769L111.85 522.245Z" fill="url(#paint0_linear)"/>
<path d="M107.276 521.829L104.089 556.618L82.7442 584.892L85.239 598.198H91.6146L87.8724 595.426L87.1794 586.832L107.554 563.963L125.987 522.938L107.276 521.829Z" fill="#3878FF"/>
<path d="M136.105 460.706L135.828 447.817L133.195 447.401L131.116 460.152L136.105 460.706Z" fill="#65D1A5"/>
<path d="M110.741 478.724C109.771 483.437 109.771 490.644 116.84 491.753C123.908 492.862 128.066 488.426 129.037 483.714C130.007 479.002 128.344 473.042 121.136 472.072C116.285 471.379 111.573 474.844 110.741 478.724Z" fill="#65D1A5"/>
<path d="M115.87 491.337C110.88 489.951 108.94 485.1 109.633 480.249C110.464 474.289 116.424 470.963 121.136 472.072C121.414 472.072 121.691 472.21 121.968 472.349C122.107 473.042 121.968 473.873 121.829 474.428C120.998 476.784 118.919 478.724 116.563 479.417C116.563 479.279 115.038 489.812 115.87 491.337Z" fill="#1F1F89"/>
<path d="M115.315 480.11C114.622 479.972 113.929 480.249 113.236 480.526C111.157 481.635 111.85 484.684 113.652 485.654C114.206 485.932 114.899 486.07 115.592 486.209C116.147 486.209 116.701 486.209 117.256 485.932C117.671 485.654 118.087 485.1 118.087 484.546C118.226 483.991 118.087 483.437 117.949 482.882C117.671 481.774 116.563 480.388 115.315 480.11Z" fill="#65D1A5"/>
<path d="M122.938 477.338C123.631 479.002 125.156 480.11 126.403 479.556C127.651 479.14 128.205 477.338 127.651 475.537C126.958 473.873 125.433 472.765 124.186 473.319C122.938 473.735 122.384 475.537 122.938 477.338Z" fill="#F7F5EF"/>
<path d="M131.809 446.015C131.809 447.678 133.056 448.925 134.719 448.925C136.382 448.925 137.63 447.678 137.63 446.015C137.63 444.352 136.382 443.104 134.719 443.104C133.056 443.104 131.809 444.352 131.809 446.015Z" fill="#8E574A"/>
<path d="M145.53 465.696L141.095 467.221C139.293 472.487 136.244 477.2 132.363 481.081L124.047 489.119L113.791 496.049L106.168 524.324L130.007 526.541L130.838 495.495L139.709 484.407C143.312 479.833 145.807 474.566 146.916 468.745L145.53 465.696Z" fill="#F7F5EF"/>
<path d="M156.757 395.287H123.631C117.949 395.287 113.375 399.861 113.375 405.544V438.669C113.375 444.352 117.949 448.925 123.631 448.925H156.757C162.439 448.925 167.013 444.352 167.013 438.669V405.544C167.013 399.861 162.439 395.287 156.757 395.287Z" fill="#F7F5EF"/>
<path d="M146.362 447.955C146.362 449.618 147.609 450.866 149.272 450.866C150.935 450.866 152.183 449.618 152.183 447.955C152.183 446.292 150.935 445.045 149.272 445.045C147.748 445.045 146.362 446.292 146.362 447.955Z" fill="#65D1A5"/>
<path d="M140.54 468.607L146.5 470.686L151.213 449.341L147.748 448.51L140.54 468.607Z" fill="#65D1A5"/>
<path d="M153.153 415.384C153.153 422.869 139.57 442.827 139.57 442.827C139.57 442.827 125.987 422.869 125.987 415.384C125.987 407.9 132.086 401.801 139.57 401.801C147.055 401.801 153.153 407.9 153.153 415.384Z" fill="#65D1A5"/>
<path d="M146.084 414.275C146.084 417.879 143.174 420.79 139.57 420.79C135.967 420.79 133.056 417.879 133.056 414.275C133.056 410.672 135.967 407.761 139.57 407.761C143.174 407.761 146.084 410.672 146.084 414.275Z" fill="#F7F5EF"/>
<path opacity="0.5" d="M71.2404 598.752H176.576" stroke="#0A5DE2" stroke-width="2" stroke-miterlimit="10" stroke-linecap="round"/>
<path d="M401.108 200.97H284.684C278.17 200.97 272.765 206.237 272.765 212.89V491.198C272.765 497.713 278.031 503.118 284.684 503.118H401.108C407.623 503.118 413.028 497.851 413.028 491.198V212.89C413.028 206.237 407.761 200.97 401.108 200.97Z" fill="#F7F5EF"/>
<path d="M401.108 200.97H284.684C278.17 200.97 272.765 206.237 272.765 212.89V224.948H413.028V212.89C413.028 206.237 407.761 200.97 401.108 200.97Z" fill="#1F1F89"/>
<path d="M272.903 476.091V491.337C272.903 497.851 278.17 503.257 284.823 503.257H401.247C407.761 503.257 413.167 497.99 413.167 491.337V476.091H272.903Z" fill="#1F1F89"/>
<path d="M390.991 233.125H357.865C352.183 233.125 347.609 237.699 347.609 243.382V276.507C347.609 282.19 352.183 286.763 357.865 286.763H390.991C396.673 286.763 401.247 282.19 401.247 276.507V243.382C401.247 237.699 396.673 233.125 390.991 233.125Z" fill="#65D1A5"/>
<path d="M390.991 395.98H357.865C352.183 395.98 347.609 400.554 347.609 406.237V439.362C347.609 445.045 352.183 449.618 357.865 449.618H390.991C396.673 449.618 401.247 445.045 401.247 439.362V406.237C401.247 400.554 396.673 395.98 390.991 395.98Z" fill="#AFC6F5"/>
<path d="M327.65 395.98H294.525C288.842 395.98 284.269 400.554 284.269 406.237V439.362C284.269 445.045 288.842 449.618 294.525 449.618H327.65C333.333 449.618 337.907 445.045 337.907 439.362V406.237C337.907 400.554 333.333 395.98 327.65 395.98Z" fill="#65D1A5"/>
<path opacity="0.5" d="M272.21 504.504H423.423" stroke="#0A5DE2" stroke-width="2" stroke-miterlimit="10" stroke-linecap="round"/>
<path d="M448.762 399.531L447.395 399.758L465.807 510.509L467.174 510.281L448.762 399.531Z" fill="#1F1F89"/>
<path d="M414.938 399.543L413.571 399.77L431.982 510.521L433.35 510.293L414.938 399.543Z" fill="#1F1F89"/>
<path d="M452.252 422.453H418.156V423.839H452.252V422.453Z" fill="#1F1F89"/>
<path d="M454.608 437.283H420.512V438.669H454.608V437.283Z" fill="#1F1F89"/>
<path d="M457.103 451.975H423.007V453.361H457.103V451.975Z" fill="#1F1F89"/>
<path d="M459.459 466.805H425.363V468.191H459.459V466.805Z" fill="#1F1F89"/>
<path d="M461.954 481.635H427.858V483.021H461.954V481.635Z" fill="#1F1F89"/>
<path d="M464.31 496.327H430.214V497.713H464.31V496.327Z" fill="#1F1F89"/>
<path d="M412.606 399.535L394.183 510.275L395.55 510.502L413.973 399.763L412.606 399.535Z" fill="#3878FF"/>
<path d="M446.383 399.482L427.96 510.221L429.327 510.449L447.75 399.71L446.383 399.482Z" fill="#3878FF"/>
<path d="M443.104 422.453H409.009V423.839H443.104V422.453Z" fill="#3878FF"/>
<path d="M440.748 437.283H406.652V438.669H440.748V437.283Z" fill="#3878FF"/>
<path d="M438.253 451.975H404.158V453.361H438.253V451.975Z" fill="#3878FF"/>
<path d="M435.897 466.805H401.801V468.191H435.897V466.805Z" fill="#3878FF"/>
<path d="M433.402 481.635H399.307V483.021H433.402V481.635Z" fill="#3878FF"/>
<path d="M431.046 496.327H396.95V497.713H431.046V496.327Z" fill="#3878FF"/>
<path d="M452.113 397.921H410.533V402.079H452.113V397.921Z" fill="#0A5DE2"/>
<path d="M488.426 379.21L484.268 337.352L479.002 292.585L483.16 292.03L492.446 334.442L506.999 335.551L522.106 292.585L526.126 293.139L515.176 339.016L515.731 378.101L488.426 379.21Z" fill="#F7F5EF"/>
<path d="M493.555 321.968C492.446 325.987 494.248 332.363 498.267 333.472C502.286 334.58 506.999 329.868 508.108 325.849C509.216 321.829 506.86 317.671 502.841 316.562C498.821 315.592 494.663 317.948 493.555 321.968Z" fill="#65D1A5"/>
<path d="M498.96 319.75C498.128 319.473 497.02 318.919 496.604 318.226C496.604 318.087 496.604 318.087 496.465 317.948C498.267 316.701 500.623 316.147 502.841 316.701C506.86 317.81 509.216 321.968 508.108 325.987C507.276 328.898 504.643 332.086 501.732 333.194C501.732 332.363 502.009 331.531 502.148 330.838C502.979 327.65 503.95 324.463 504.92 321.413C502.841 320.998 500.9 320.443 498.96 319.75Z" fill="#2B159B"/>
<path d="M503.534 325.849C504.088 325.433 504.781 325.294 505.474 325.571C505.613 325.571 505.751 325.71 505.89 325.849C506.167 326.126 506.306 326.542 506.306 326.957C506.167 328.066 505.197 329.036 504.088 329.452C503.811 329.591 503.395 329.591 503.118 329.591C502.841 329.591 502.425 329.314 502.286 329.175C501.593 328.066 502.841 326.403 503.534 325.849Z" fill="#65D1A5"/>
<path d="M515.731 378.101L511.711 442.273H507.276L503.395 378.517L499.514 378.794L497.02 443.797H493.555L488.426 379.21L487.595 371.309L515.592 371.587L515.731 378.101Z" fill="#3878FF"/>
<path d="M511.711 442.273L521.413 443.381L521.136 444.906H506.722L507.276 442.273H511.711Z" fill="#3878FF"/>
<path d="M497.02 443.797V445.599L483.575 446.153V444.49L493.555 443.797H497.02Z" fill="#3878FF"/>
<path d="M500.762 327.512C498.267 327.789 496.327 325.294 493.97 325.017C493.832 325.017 493.693 325.017 493.555 325.017C493.416 325.156 493.277 325.294 493.139 325.433C492.862 325.987 492.584 326.68 492.169 327.235C491.891 327.789 491.476 328.482 491.337 329.175C491.198 330.007 491.337 330.838 491.476 331.67C491.614 332.363 491.753 332.917 492.03 333.61C492.584 334.719 493.555 335.412 494.663 335.828C495.772 336.244 497.02 336.244 498.128 336.244C498.96 336.105 499.792 335.966 500.485 335.689C502.009 334.858 502.98 333.056 502.702 331.254C502.702 330.838 502.564 330.422 502.564 330.007C502.564 329.591 502.841 329.175 502.98 328.759C503.257 328.343 504.781 326.264 503.534 326.264C503.118 326.264 502.564 326.957 502.286 327.096C501.871 327.235 501.316 327.373 500.762 327.512Z" fill="#2B159B"/>
<g opacity="0.4">
<path opacity="0.4" d="M516.839 307.415H522.799L526.126 293.139L522.106 292.585L516.839 307.415Z" fill="#AFC6F5"/>
<path opacity="0.4" d="M483.16 292.03L479.002 292.585L480.803 307.415H486.486L483.16 292.03Z" fill="#AFC6F5"/>
</g>
<path d="M582.536 246.708H446.985C440.332 246.708 434.927 252.113 434.927 258.766V279.002C434.927 285.655 440.332 291.06 446.985 291.06H582.536C589.189 291.06 594.594 285.655 594.594 279.002V258.766C594.594 252.113 589.189 246.708 582.536 246.708Z" fill="#3878FF"/>
<path d="M578.516 246.708H442.966C436.313 246.708 430.907 252.113 430.907 258.766V279.002C430.907 285.655 436.313 291.06 442.966 291.06H578.516C585.169 291.06 590.575 285.655 590.575 279.002V258.766C590.575 252.113 585.169 246.708 578.516 246.708Z" fill="#F7F5EF"/>
<path d="M580.457 280.804L573.943 274.012C575.606 272.072 576.576 269.577 576.576 266.944C576.576 260.845 571.586 255.856 565.488 255.856C559.39 255.856 554.4 260.845 554.4 266.944C554.4 273.042 559.39 278.032 565.488 278.032C567.706 278.032 569.923 277.339 571.864 276.091L578.378 282.883C578.655 283.16 579.071 283.298 579.348 283.298C579.764 283.298 580.041 283.16 580.318 282.883C581.011 282.19 581.011 281.358 580.457 280.804ZM565.488 258.766C569.923 258.766 573.665 262.37 573.665 266.944C573.665 271.379 570.062 275.121 565.488 275.121C561.053 275.121 557.311 271.517 557.311 266.944C557.449 262.37 561.053 258.766 565.488 258.766Z" fill="#AFC6F5"/>
<path opacity="0.5" d="M444.074 446.292H588.218" stroke="#0A5DE2" stroke-width="2" stroke-miterlimit="10" stroke-linecap="round"/>
<path d="M484.13 290.228C484.13 292.169 482.605 293.693 480.665 293.693C478.724 293.693 477.2 292.169 477.2 290.228C477.2 288.288 478.724 286.763 480.665 286.763C482.467 286.763 484.13 288.288 484.13 290.228Z" fill="#65D1A5"/>
<path d="M526.126 291.199C526.126 293.139 524.601 294.664 522.661 294.664C520.72 294.664 519.196 293.139 519.196 291.199C519.196 289.258 520.72 287.734 522.661 287.734C524.601 287.734 526.126 289.258 526.126 291.199Z" fill="#65D1A5"/>
<path d="M356.063 301.455C356.756 303.395 355.786 305.613 353.846 306.445C351.905 307.276 349.688 306.167 348.856 304.227C348.163 302.287 349.133 300.069 351.074 299.237C353.153 298.544 355.37 299.515 356.063 301.455Z" fill="#AFC6F5"/>
<path d="M344.56 284.823L311.85 279.14C306.306 278.17 300.901 281.912 299.93 287.456L294.248 320.166C293.278 325.71 297.02 331.115 302.564 332.086L335.273 337.768C340.817 338.738 346.223 334.996 347.193 329.452L352.876 296.743C353.846 291.199 350.104 285.793 344.56 284.823Z" fill="#3878FF"/>
<path d="M186.417 470.131H210.395C210.949 470.131 211.504 469.854 211.642 469.3C211.919 468.745 211.781 468.191 211.365 467.775L188.219 442.827L186.14 444.767L207.068 467.359H186.278V470.131H186.417Z" fill="#3878FF"/>
<path d="M355.232 301.871L365.488 305.89L395.564 308.801L385.447 315.869L364.379 310.741L353.707 305.89L355.232 301.871Z" fill="#65D1A5"/>
<path d="M391.406 297.297C393.07 301.594 390.852 306.445 386.555 308.108C382.259 309.771 377.408 307.553 375.745 303.257C374.081 298.96 376.299 294.109 380.596 292.446C384.892 290.783 389.743 293 391.406 297.297Z" fill="#AFC6F5"/>
<path d="M422.869 332.086L419.404 367.151L420.651 397.921H408.731L408.038 395.564L416.216 394.456L411.919 367.29L407.9 333.333L422.869 332.086Z" fill="url(#paint1_linear)"/>
<path d="M350.381 305.474C354.816 307.276 369.508 311.157 374.22 310.741L384.061 309.91L394.317 307.276L416.77 318.226L404.851 334.858L384.338 317.81L372.28 317.255C367.29 316.978 353.153 311.711 348.856 309.078L350.381 305.474Z" fill="#65D1A5"/>
<path d="M392.792 295.218C390.991 291.199 384.061 290.228 380.041 292.169C379.764 292.307 379.625 292.446 379.348 292.585C379.348 293.278 379.625 293.832 379.903 294.386C381.011 296.327 383.229 297.574 385.447 297.713C385.447 297.713 385.585 298.129 385.862 298.822C386.14 298.544 386.417 298.267 386.694 298.129C387.248 297.851 387.941 297.851 388.634 298.129C390.713 298.683 390.575 301.594 389.189 302.702C388.773 303.118 388.219 303.395 387.664 303.534C387.664 303.534 387.526 303.534 387.387 303.534C387.248 306.306 387.387 306.583 387.941 307.415C391.406 305.059 395.01 300.346 392.792 295.218Z" fill="#1F1F89"/>
<path d="M459.598 327.512L439.501 336.244L416.354 318.364L404.435 334.719L439.501 345.53L460.152 331.531L464.587 336.521L466.112 334.996L459.598 327.512Z" fill="#3878FF"/>
<path d="M351.628 305.336C352.321 307.276 351.351 309.494 349.411 310.325C347.47 311.018 345.253 310.048 344.421 308.108C343.728 306.167 344.698 303.95 346.639 303.118C348.718 302.425 350.935 303.395 351.628 305.336Z" fill="#AFC6F5"/>
<path d="M185.17 208.732H212.335V481.358H185.17V208.732ZM209.563 211.504H187.942V478.586H209.563V211.504Z" fill="#3878FF"/>
<path d="M181.596 491.5H216.107V466.691H181.596V491.5Z" fill="#F7F5EF"/>
<path d="M186.417 367.706H210.395C210.949 367.706 211.504 367.429 211.642 366.874C211.781 366.32 211.781 365.765 211.365 365.35L188.219 340.402L186.14 342.342L207.068 364.934H186.278V367.706H186.417Z" fill="#3878FF"/>
<path d="M186.417 393.208H210.395C210.949 393.208 211.504 392.931 211.642 392.377C211.919 391.822 211.781 391.268 211.365 390.852L188.219 365.904L186.14 367.844L207.068 390.436H186.278V393.208H186.417Z" fill="#3878FF"/>
<path d="M186.417 418.849H210.395C210.949 418.849 211.504 418.572 211.642 418.018C211.919 417.463 211.781 416.909 211.365 416.493L188.219 391.545L186.14 393.485L207.068 416.077H186.278V418.849H186.417Z" fill="#3878FF"/>
<path d="M186.417 444.49H210.395C210.949 444.49 211.504 444.213 211.642 443.659C211.781 443.104 211.781 442.55 211.365 442.134L188.219 417.186L186.14 419.126L207.068 441.718H186.278V444.49H186.417Z" fill="#3878FF"/>
<path d="M186.417 342.619H210.395C210.949 342.619 211.504 342.342 211.642 341.788C211.919 341.233 211.781 340.679 211.365 340.263L188.219 315.315L186.14 317.255L207.068 339.847H186.278V342.619H186.417Z" fill="#3878FF"/>
<path d="M186.417 317.671H210.395C210.949 317.671 211.504 317.394 211.642 316.84C211.919 316.285 211.781 315.731 211.365 315.315L188.219 290.367L186.14 292.307L207.068 314.899H186.278V317.671H186.417Z" fill="#3878FF"/>
<path d="M186.417 292.585H210.395C210.949 292.585 211.504 292.307 211.642 291.753C211.919 291.199 211.781 290.644 211.365 290.228L188.219 265.28L186.14 267.221L207.068 289.813H186.278V292.585H186.417Z" fill="#3878FF"/>
<path d="M186.417 267.637H210.395C210.949 267.637 211.504 267.359 211.642 266.805C211.919 266.251 211.781 265.696 211.365 265.28L188.219 240.332L186.14 242.273L207.068 264.865H186.278V267.637H186.417Z" fill="#3878FF"/>
<path d="M186.417 242.55H210.395C210.949 242.55 211.504 242.273 211.642 241.718C211.781 241.164 211.781 240.61 211.365 240.194L188.219 215.246L186.14 217.186L207.068 239.778H186.278V242.55H186.417Z" fill="#3878FF"/>
<path d="M186.417 217.602H210.395C210.949 217.602 211.504 217.325 211.642 216.77C211.919 216.216 211.781 215.662 211.365 215.246L188.219 190.298L186.14 192.238L207.068 214.83H186.278V217.602H186.417Z" fill="#3878FF"/>
<path d="M185.226 218.163H229.162V181.157H185.226V218.163Z" fill="#1F1F89"/>
<path d="M119.207 202.389H163.144V181.045H119.207V202.389Z" fill="#1F1F89"/>
<path d="M119.889 183.784H337.075C337.907 183.784 338.461 183.229 338.461 182.398C338.461 181.566 337.907 181.012 337.075 181.012H119.889C119.057 181.012 118.503 181.566 118.503 182.398C118.503 183.229 119.196 183.784 119.889 183.784Z" fill="#3878FF"/>
<path d="M326.957 188.912H325.571V279.002H326.957V188.912Z" fill="#3878FF"/>
<path d="M169.815 497.922H227.888V486.973H169.815V497.922Z" fill="#3878FF"/>
<path d="M207.068 183.368C207.207 183.368 207.484 183.368 207.623 183.229L219.265 171.587H325.433L336.382 182.536C336.659 182.813 337.075 182.813 337.352 182.536C337.63 182.259 337.63 181.843 337.352 181.566L326.126 170.339H218.849L206.93 182.259C206.653 182.536 206.653 182.952 206.93 183.229C206.653 183.368 206.93 183.368 207.068 183.368Z" fill="#3878FF"/>
<path d="M119.057 183.368C119.335 183.368 119.612 183.229 119.612 182.952L131.254 160.776H159.39L170.339 182.259C170.478 182.536 170.894 182.675 171.31 182.536C171.587 182.398 171.725 181.982 171.587 181.566L160.36 159.39H130.423L118.503 182.259C118.364 182.536 118.503 182.952 118.78 183.229C118.78 183.368 118.919 183.368 119.057 183.368Z" fill="#3878FF"/>
<path d="M321.136 188.912C321.136 191.684 323.354 194.04 326.264 194.04C329.036 194.04 331.393 191.822 331.393 188.912C331.393 186.14 329.175 183.784 326.264 183.784C323.492 183.784 321.136 186.001 321.136 188.912Z" fill="#F7F5EF"/>
<path d="M296.188 171.587C296.465 171.587 296.743 171.448 296.881 171.032C297.02 170.617 296.743 170.339 296.465 170.201L193.901 138.877C193.763 138.877 193.624 138.877 193.486 138.877L144.837 159.39C144.421 159.529 144.283 159.944 144.421 160.36C144.56 160.776 144.976 160.915 145.391 160.776L193.763 140.402L296.188 171.587C296.188 171.587 296.05 171.587 296.188 171.587Z" fill="#3878FF"/>
<path d="M209.702 183.506C209.84 183.506 209.979 183.506 210.256 183.368C210.949 183.091 211.365 182.259 211.088 181.566L194.872 139.016C194.594 138.461 194.04 138.046 193.486 138.184C192.931 138.184 192.377 138.739 192.238 139.293L183.922 180.734C183.784 181.427 184.199 182.259 185.031 182.398C185.724 182.536 186.556 182.12 186.694 181.289L194.04 144.56L208.454 182.536C208.732 183.091 209.147 183.506 209.702 183.506Z" fill="#3878FF"/>
<path d="M190.852 139.57C190.852 141.095 192.1 142.342 193.624 142.342C195.149 142.342 196.396 141.095 196.396 139.57C196.396 138.046 195.149 136.798 193.624 136.798C192.1 136.798 190.852 138.046 190.852 139.57Z" fill="#BCCCFD"/>
<path d="M310.88 183.506C311.018 183.506 311.157 183.506 311.296 183.368L324.878 172.418V182.675C324.878 183.091 325.156 183.368 325.571 183.368C325.987 183.368 326.264 183.091 326.264 182.675V170.894C326.264 170.617 326.126 170.339 325.849 170.201C325.571 170.062 325.294 170.062 325.156 170.339L310.464 182.259C310.187 182.536 310.187 182.952 310.325 183.229C310.464 183.506 310.603 183.506 310.88 183.506Z" fill="#3878FF"/>
<path d="M297.713 183.506C297.851 183.506 297.99 183.506 298.129 183.368L311.711 172.418V182.675C311.711 183.091 311.989 183.368 312.404 183.368C312.82 183.368 313.097 183.091 313.097 182.675V170.894C313.097 170.617 312.959 170.339 312.682 170.201C312.404 170.062 312.127 170.062 311.989 170.339L297.297 182.259C297.02 182.536 297.02 182.952 297.158 183.229C297.297 183.506 297.436 183.506 297.713 183.506Z" fill="#3878FF"/>
<path d="M284.546 183.506C284.684 183.506 284.823 183.506 284.962 183.368L298.544 172.418V182.675C298.544 183.091 298.822 183.368 299.237 183.368C299.653 183.368 299.93 183.091 299.93 182.675V170.894C299.93 170.617 299.792 170.339 299.515 170.201C299.237 170.062 298.96 170.062 298.822 170.339L284.13 182.259C283.853 182.536 283.853 182.952 283.991 183.229C284.13 183.506 284.269 183.506 284.546 183.506Z" fill="#3878FF"/>
<path d="M271.379 183.506C271.517 183.506 271.656 183.506 271.795 183.368L285.377 172.418V182.675C285.377 183.091 285.655 183.368 286.07 183.368C286.486 183.368 286.763 183.091 286.763 182.675V170.894C286.763 170.617 286.625 170.339 286.348 170.201C286.07 170.062 285.793 170.062 285.655 170.339L270.963 182.259C270.686 182.536 270.686 182.952 270.824 183.229C270.963 183.506 271.102 183.506 271.379 183.506Z" fill="#3878FF"/>
<path d="M258.212 183.506C258.35 183.506 258.489 183.506 258.628 183.368L272.21 172.418V182.675C272.21 183.091 272.488 183.368 272.903 183.368C273.319 183.368 273.596 183.091 273.596 182.675V170.894C273.596 170.617 273.458 170.339 273.181 170.201C272.903 170.062 272.626 170.062 272.488 170.339L257.796 182.259C257.519 182.536 257.519 182.952 257.657 183.229C257.796 183.506 257.935 183.506 258.212 183.506Z" fill="#3878FF"/>
<path d="M245.045 183.506C245.183 183.506 245.322 183.506 245.461 183.368L259.043 172.418V182.675C259.043 183.091 259.321 183.368 259.736 183.368C260.152 183.368 260.429 183.091 260.429 182.675V170.894C260.429 170.617 260.291 170.339 260.014 170.201C259.736 170.062 259.459 170.062 259.321 170.339L244.629 182.259C244.352 182.536 244.352 182.952 244.49 183.229C244.629 183.506 244.768 183.506 245.045 183.506Z" fill="#3878FF"/>
<path d="M231.878 183.506C232.016 183.506 232.155 183.506 232.294 183.368L245.876 172.418V182.675C245.876 183.091 246.154 183.368 246.569 183.368C246.985 183.368 247.262 183.091 247.262 182.675V170.894C247.262 170.617 247.124 170.339 246.847 170.201C246.569 170.062 246.292 170.062 246.154 170.339L231.462 182.259C231.185 182.536 231.185 182.952 231.323 183.229C231.462 183.506 231.739 183.506 231.878 183.506Z" fill="#3878FF"/>
<path d="M218.711 183.506C218.849 183.506 218.988 183.506 219.127 183.368L232.709 172.418V182.675C232.709 183.091 232.987 183.368 233.402 183.368C233.818 183.368 234.095 183.091 234.095 182.675V170.894C234.095 170.617 233.957 170.339 233.68 170.201C233.402 170.062 233.125 170.062 232.987 170.339L218.295 182.259C218.018 182.536 218.018 182.952 218.156 183.229C218.295 183.506 218.572 183.506 218.711 183.506Z" fill="#3878FF"/>
<path d="M140.956 183.506C141.095 183.506 141.372 183.368 141.511 183.229L159.251 162.301V182.536C159.251 182.952 159.529 183.229 159.944 183.229C160.36 183.229 160.637 182.952 160.637 182.536V160.36C160.637 160.083 160.499 159.806 160.222 159.667C159.944 159.529 159.667 159.667 159.39 159.806L140.54 182.12C140.263 182.398 140.263 182.813 140.679 183.091C140.54 183.506 140.818 183.506 140.956 183.506Z" fill="#3878FF"/>
<path d="M127.373 183.506C127.651 183.506 127.789 183.368 127.928 183.229L141.372 162.855V182.675C141.372 183.091 141.649 183.368 142.065 183.368C142.481 183.368 142.758 183.091 142.758 182.675V160.499C142.758 160.222 142.619 159.944 142.204 159.806C141.926 159.667 141.649 159.806 141.372 160.083L126.68 182.398C126.403 182.675 126.542 183.091 126.819 183.368C127.096 183.506 127.235 183.506 127.373 183.506Z" fill="#3878FF"/>
<path d="M321.968 280.804C321.968 283.16 323.908 285.1 326.264 285.1C328.621 285.1 330.561 283.16 330.561 280.804C330.561 278.447 328.621 276.507 326.264 276.507C323.908 276.368 321.968 278.309 321.968 280.804Z" fill="#1F1F89"/>
<path opacity="0.5" d="M144.698 498.96H250.034" stroke="#0A5DE2" stroke-width="2" stroke-miterlimit="10" stroke-linecap="round"/>
<path d="M583.229 543.728L581.704 522.106L584.06 506.029L592.376 458.905L588.357 458.35L579.209 499.93L564.934 501.039L550.242 458.905L546.223 459.459L557.033 504.504L560.776 521.69L560.36 542.619L583.229 543.728Z" fill="#65D1A5"/>
<path d="M563.548 485.654L562.162 498.128L570.616 498.821L575.883 485.654H563.548Z" fill="#1F1F89"/>
<path d="M579.209 490.228C579.209 494.941 575.329 498.821 570.616 498.821C565.904 498.821 562.023 494.941 562.023 490.228C562.023 485.516 565.904 481.635 570.616 481.635C575.329 481.635 579.209 485.516 579.209 490.228Z" fill="#F7F5EF"/>
<path d="M586.417 406.375H553.291C547.609 406.375 543.035 410.949 543.035 416.632V449.757C543.035 455.44 547.609 460.013 553.291 460.013H586.417C592.099 460.013 596.673 455.44 596.673 449.757V416.632C596.673 410.949 592.099 406.375 586.417 406.375Z" fill="#0A5DE2"/>
<path d="M573.804 489.674C573.943 489.812 574.22 489.812 574.358 489.812C574.497 489.812 574.636 489.535 574.774 489.397C575.19 488.842 576.16 488.842 576.715 489.397C577.269 489.951 577.269 490.783 576.992 491.476C576.576 492.169 575.883 492.446 575.19 492.584C574.774 494.248 574.497 496.049 574.636 497.851C575.744 497.99 576.992 497.99 578.101 498.128C578.378 498.128 578.516 498.128 578.794 497.99C578.932 497.851 579.071 497.574 579.071 497.435C579.487 495.356 579.764 493.416 579.764 491.337C579.764 489.397 579.487 487.318 578.516 485.516C577.269 483.437 572.141 480.11 569.646 481.912C566.735 483.853 571.864 488.704 573.804 489.674Z" fill="#1F1F89"/>
<path d="M566.735 486.763C565.349 488.149 563.409 489.258 561.33 489.397C561.191 487.179 562.162 484.823 563.963 483.437C564.934 482.605 568.121 480.803 569.507 481.635C570.893 482.467 567.706 485.793 566.735 486.763Z" fill="#1F1F89"/>
<path d="M582.397 528.343L560.637 527.373L543.866 602.356L536.105 597.643L545.53 609.147L567.844 547.331L567.567 575.329L582.674 595.426L583.645 602.633L584.06 605.682L586.694 605.405L587.248 594.317L575.467 575.329L583.783 543.728L582.397 528.343Z" fill="#0A5DE2"/>
<path d="M583.783 479.279L588.496 480.942L592.376 458.905L588.357 458.35L583.783 479.279Z" fill="#F7F5EF"/>
<path d="M556.34 476.368L550.796 478.447L546.223 459.459L550.242 458.905L556.34 476.368Z" fill="#F7F5EF"/>
<path d="M574.774 500.346L570.755 507.553L568.676 500.762L574.774 500.346Z" fill="#F7F5EF"/>
<path d="M544.421 456.687C544.421 458.627 545.945 460.152 547.886 460.152C549.826 460.152 551.351 458.627 551.351 456.687C551.351 454.747 549.826 453.222 547.886 453.222C545.945 453.222 544.421 454.747 544.421 456.687Z" fill="#F7F5EF"/>
<path d="M587.248 457.241C587.248 459.182 588.773 460.706 590.713 460.706C592.654 460.706 594.178 459.182 594.178 457.241C594.178 455.301 592.654 453.776 590.713 453.776C588.773 453.776 587.248 455.44 587.248 457.241Z" fill="#F7F5EF"/>
<path d="M561.746 564.241L567.013 549.688L567.567 545.114L560.637 527.373L553.291 559.944C556.479 561.607 559.528 563.132 561.746 564.241Z" fill="url(#paint2_linear)"/>
<path d="M576.715 424.116C576.715 427.997 573.527 431.185 569.646 431.185C565.765 431.185 562.577 427.997 562.577 424.116C562.577 420.235 565.765 417.047 569.646 417.047C573.527 417.047 576.715 420.235 576.715 424.116Z" fill="#F7F5EF"/>
<path d="M583.506 445.46C583.367 438.115 577.408 432.293 570.062 432.293C562.716 432.293 556.756 438.253 556.618 445.46H583.506Z" fill="#F7F5EF"/>
<path opacity="0.5" d="M516.424 607.761H621.76" stroke="#0A5DE2" stroke-width="2" stroke-miterlimit="10" stroke-linecap="round"/>
<path opacity="0.5" d="M375.052 510.048H480.388" stroke="#0A5DE2" stroke-width="2" stroke-miterlimit="10" stroke-linecap="round"/>
<path d="M266.251 338.461H233.125C227.443 338.461 222.869 343.035 222.869 348.718V381.843C222.869 387.526 227.443 392.099 233.125 392.099H266.251C271.933 392.099 276.507 387.526 276.507 381.843V348.718C276.507 343.035 271.933 338.461 266.251 338.461Z" fill="#0A5DE2"/>
<path d="M235.759 479.279L231.601 437.699L226.472 393.208L230.492 392.654L239.778 434.788L254.192 436.036L269.161 393.208L273.181 393.763L262.231 439.501L262.786 478.17L235.759 479.279Z" fill="#F7F5EF"/>
<path d="M232.848 390.991C232.848 392.931 231.323 394.456 229.383 394.456C227.443 394.456 225.918 392.931 225.918 390.991C225.918 389.05 227.443 387.526 229.383 387.526C231.323 387.526 232.848 389.05 232.848 390.991Z" fill="#65D1A5"/>
<path d="M273.181 392.099C273.181 394.04 271.656 395.564 269.716 395.564C267.775 395.564 266.251 394.04 266.251 392.099C266.251 390.159 267.775 388.634 269.716 388.634C271.656 388.634 273.181 390.159 273.181 392.099Z" fill="#65D1A5"/>
<path d="M256.133 422.176C256.133 427.027 252.252 431.046 247.262 431.046C242.411 431.046 238.392 427.165 238.392 422.176C238.392 417.325 242.273 413.305 247.262 413.305C252.113 413.305 256.133 417.325 256.133 422.176Z" fill="#65D1A5"/>
<path d="M256.133 423.562C256.133 428.413 252.252 432.432 247.262 432.432C242.411 432.432 238.392 428.551 238.392 423.562C238.392 418.711 242.273 414.691 247.262 414.691C252.113 414.691 256.133 418.711 256.133 423.562Z" fill="#1F1F89"/>
<path d="M262.786 478.17L258.905 541.926H254.47L250.727 478.586L246.708 478.863L244.352 543.451L240.887 543.312L235.759 479.279L234.927 471.379L262.786 471.794V478.17Z" fill="#3878FF"/>
<path d="M258.905 541.926L268.607 543.035L268.191 544.421H254.054L254.47 541.926H258.905Z" fill="#3878FF"/>
<path d="M244.352 543.451V545.252L231.046 545.807V544.144L240.887 543.312L244.352 543.451Z" fill="#3878FF"/>
<path opacity="0.5" d="M215.662 545.391H293.278" stroke="#0A5DE2" stroke-width="2" stroke-miterlimit="10" stroke-linecap="round"/>
<path d="M367.151 560.637C367.151 560.776 367.151 560.914 367.151 560.914C367.151 560.914 367.151 560.914 367.151 561.053C367.151 561.191 367.151 561.191 367.013 561.33C367.013 561.469 366.874 561.469 366.736 561.607C366.597 561.746 366.597 561.746 366.458 561.884C366.32 562.023 366.181 562.023 366.043 562.162C366.043 562.162 365.904 562.162 365.904 562.3C365.765 562.439 365.627 562.439 365.488 562.577C365.488 562.577 365.35 562.577 365.35 562.716C365.211 562.716 365.072 562.855 364.934 562.855C364.934 562.855 364.795 562.855 364.795 562.993C364.518 563.132 364.379 563.132 364.102 563.27L340.402 571.448C340.124 571.586 339.986 571.586 339.709 571.586C339.293 571.725 339.016 571.725 338.6 571.864C338.184 572.002 337.63 572.002 337.214 572.141C336.937 572.141 336.659 572.279 336.382 572.279C335.966 572.279 335.689 572.418 335.273 572.418C335.135 572.418 335.135 572.418 334.996 572.418C334.442 572.418 333.749 572.418 333.194 572.418C332.501 572.418 331.947 572.418 331.254 572.418C330.561 572.418 330.007 572.279 329.452 572.279C328.898 572.141 328.343 572.141 327.789 572.002C327.235 571.864 326.68 571.725 326.264 571.586L302.98 563.548C302.841 563.548 302.702 563.409 302.564 563.409C302.425 563.409 302.287 563.27 302.287 563.27C302.148 563.27 302.148 563.132 302.009 563.132C301.871 563.132 301.871 562.993 301.732 562.993C301.594 562.993 301.594 562.855 301.455 562.855C301.316 562.855 301.316 562.716 301.178 562.716C301.039 562.716 301.039 562.577 301.039 562.577C300.901 562.577 300.901 562.439 300.762 562.439L300.623 562.3L300.485 562.162L300.346 562.023C300.346 562.023 300.346 561.884 300.208 561.884C300.208 561.884 300.208 561.746 300.069 561.746C299.93 561.607 299.93 561.469 299.93 561.191L300.069 571.586C300.069 571.725 300.069 571.864 300.208 572.141C300.208 572.141 300.208 572.279 300.346 572.279C300.346 572.279 300.346 572.418 300.485 572.418L300.623 572.557L300.762 572.695L300.901 572.834L301.039 572.972C301.178 572.972 301.178 573.111 301.316 573.111L301.455 573.25C301.594 573.25 301.594 573.388 301.732 573.388C301.732 573.388 301.871 573.388 302.009 573.527C302.148 573.527 302.287 573.665 302.425 573.665C302.564 573.665 302.564 573.665 302.702 573.804C302.841 573.804 302.98 573.943 303.118 573.943L326.403 581.981C326.68 582.12 326.957 582.12 327.235 582.259C327.512 582.259 327.65 582.397 327.928 582.397C328.066 582.397 328.343 582.536 328.482 582.536C328.621 582.536 328.898 582.674 329.175 582.674C329.314 582.674 329.591 582.674 329.729 582.813C329.868 582.813 330.145 582.813 330.284 582.952C330.422 582.952 330.7 582.952 330.838 582.952C330.977 582.952 331.254 582.952 331.393 582.952C331.67 582.952 331.808 582.952 332.086 582.952C332.363 582.952 332.501 582.952 332.779 582.952C332.917 582.952 333.194 582.952 333.333 582.952C333.61 582.952 333.749 582.952 334.026 582.952C334.303 582.952 334.58 582.952 334.858 582.952C334.996 582.952 334.996 582.952 335.135 582.952C335.273 582.952 335.273 582.952 335.412 582.952C335.551 582.952 335.689 582.952 335.828 582.952C336.105 582.952 336.244 582.952 336.521 582.813C336.798 582.813 337.075 582.813 337.352 582.674C337.491 582.674 337.491 582.674 337.63 582.674C337.907 582.674 338.323 582.536 338.6 582.536H338.738C339.154 582.397 339.431 582.397 339.847 582.259C339.986 582.259 340.263 582.12 340.402 582.12H340.54L364.241 573.943C364.518 573.804 364.657 573.804 364.934 573.665C364.934 573.665 365.072 573.665 365.072 573.527C365.211 573.527 365.35 573.388 365.488 573.388C365.488 573.388 365.488 573.388 365.627 573.388C365.627 573.388 365.765 573.388 365.765 573.25L365.904 573.111C365.904 573.111 366.043 573.111 366.043 572.972C366.043 572.972 366.181 572.972 366.181 572.834C366.181 572.834 366.181 572.834 366.32 572.834C366.458 572.695 366.458 572.695 366.597 572.557L366.736 572.418C366.736 572.418 366.736 572.418 366.874 572.279C366.874 572.141 367.013 572.141 367.013 572.002C367.013 572.002 367.013 571.864 367.151 571.864V571.725C367.151 571.725 367.151 571.725 367.151 571.586C367.151 571.448 367.151 571.448 367.151 571.309V560.637Z" fill="#407F61"/>
<path d="M364.102 558.281C368.122 559.667 367.983 561.884 363.964 563.27L340.263 571.448C336.244 572.834 329.729 572.834 325.71 571.448L302.425 563.409C298.406 562.023 298.544 559.805 302.564 558.419L326.264 550.242C330.284 548.856 336.798 548.856 340.817 550.242L364.102 558.281Z" fill="#65D1A5"/>
<path d="M458.766 551.767C458.766 551.905 458.766 552.044 458.766 552.044C458.766 552.044 458.766 552.044 458.766 552.182C458.766 552.321 458.766 552.321 458.627 552.46C458.627 552.598 458.489 552.598 458.35 552.737C458.212 552.875 458.212 552.875 458.073 553.014C457.934 553.153 457.796 553.153 457.657 553.291C457.657 553.291 457.519 553.291 457.519 553.43C457.38 553.568 457.241 553.568 457.103 553.707C457.103 553.707 456.964 553.707 456.964 553.846C456.826 553.846 456.687 553.984 456.548 553.984C456.548 553.984 456.41 553.984 456.41 554.123C456.133 554.261 455.994 554.261 455.717 554.4L432.016 562.577C431.739 562.716 431.6 562.716 431.323 562.716C430.907 562.855 430.63 562.855 430.214 562.993C429.799 563.132 429.244 563.132 428.828 563.27C428.551 563.27 428.274 563.409 427.997 563.409C427.581 563.409 427.304 563.548 426.888 563.548C426.749 563.548 426.749 563.548 426.611 563.548C426.056 563.548 425.363 563.548 424.809 563.548C424.116 563.548 423.562 563.548 422.869 563.548C422.176 563.548 421.621 563.409 421.067 563.409C420.512 563.27 419.958 563.27 419.404 563.132C418.849 562.993 418.295 562.855 417.879 562.716L394.594 554.677C394.456 554.677 394.317 554.539 394.178 554.539C394.04 554.539 393.901 554.4 393.901 554.4C393.763 554.4 393.763 554.261 393.624 554.261C393.485 554.261 393.485 554.123 393.347 554.123C393.208 554.123 393.208 553.984 393.07 553.984C392.931 553.984 392.931 553.846 392.792 553.846C392.654 553.846 392.654 553.707 392.654 553.707C392.515 553.707 392.515 553.568 392.377 553.568L392.238 553.43L392.099 553.291L391.961 553.153C391.961 553.153 391.961 553.014 391.822 553.014C391.822 553.014 391.822 552.875 391.684 552.875C391.545 552.737 391.545 552.598 391.545 552.321L391.684 562.716C391.684 562.855 391.684 562.993 391.822 563.27C391.822 563.27 391.822 563.409 391.961 563.409C391.961 563.409 391.961 563.548 392.099 563.548L392.238 563.686L392.377 563.825L392.515 563.963L392.654 564.102C392.792 564.102 392.792 564.241 392.931 564.241L393.07 564.379C393.208 564.379 393.208 564.518 393.347 564.518C393.347 564.518 393.485 564.518 393.624 564.656C393.763 564.656 393.901 564.795 394.04 564.795C394.178 564.795 394.178 564.795 394.317 564.934C394.456 564.934 394.594 565.072 394.733 565.072L418.018 573.111C418.295 573.25 418.572 573.25 418.849 573.388C419.126 573.388 419.265 573.527 419.542 573.527C419.681 573.527 419.958 573.665 420.097 573.665C420.235 573.665 420.512 573.804 420.79 573.804C420.928 573.804 421.205 573.804 421.344 573.943C421.483 573.943 421.76 573.943 421.898 574.081C422.037 574.081 422.314 574.081 422.453 574.081C422.591 574.081 422.869 574.081 423.007 574.081C423.284 574.081 423.423 574.081 423.7 574.081C423.977 574.081 424.116 574.081 424.393 574.081C424.532 574.081 424.809 574.081 424.948 574.081C425.225 574.081 425.363 574.081 425.641 574.081C425.918 574.081 426.195 574.081 426.472 574.081C426.611 574.081 426.611 574.081 426.749 574.081C426.888 574.081 426.888 574.081 427.027 574.081C427.165 574.081 427.304 574.081 427.442 574.081C427.72 574.081 427.858 574.081 428.135 573.943C428.413 573.943 428.69 573.943 428.967 573.804C429.106 573.804 429.106 573.804 429.244 573.804C429.521 573.804 429.937 573.665 430.214 573.665H430.353C430.769 573.527 431.046 573.527 431.462 573.388C431.6 573.388 431.878 573.25 432.016 573.25H432.155L455.855 565.072C456.133 564.934 456.271 564.934 456.548 564.795C456.548 564.795 456.687 564.795 456.687 564.656C456.826 564.656 456.964 564.518 457.103 564.518C457.103 564.518 457.103 564.518 457.241 564.518C457.241 564.518 457.38 564.518 457.38 564.379L457.519 564.241C457.519 564.241 457.657 564.241 457.657 564.102C457.657 564.102 457.796 564.102 457.796 563.963C457.796 563.963 457.796 563.963 457.934 563.963C458.073 563.825 458.073 563.825 458.212 563.686L458.35 563.548C458.35 563.548 458.35 563.548 458.489 563.409C458.489 563.27 458.627 563.27 458.627 563.132C458.627 563.132 458.627 562.993 458.766 562.993V562.855C458.766 562.855 458.766 562.855 458.766 562.716C458.766 562.577 458.766 562.577 458.766 562.439V551.767Z" fill="#1F1F89"/>
<path d="M455.717 549.272C459.736 550.658 459.598 552.875 455.578 554.261L431.878 562.439C427.858 563.825 421.344 563.825 417.325 562.439L394.04 554.4C390.02 553.014 390.159 550.796 394.178 549.41L417.879 541.233C421.898 539.847 428.413 539.847 432.432 541.233L455.717 549.272Z" fill="#3878FF"/>
<defs>
<linearGradient id="paint0_linear" x1="120.401" y1="534.747" x2="122.534" y2="571.915" gradientUnits="userSpaceOnUse">
<stop offset="0.00325234" stop-color="#241084"/>
<stop offset="0.9896" stop-color="#0A5DE2"/>
</linearGradient>
<linearGradient id="paint1_linear" x1="416.621" y1="351.172" x2="410.564" y2="388.447" gradientUnits="userSpaceOnUse">
<stop offset="0.00325234" stop-color="#241084"/>
<stop offset="0.9896" stop-color="#0A5DE2"/>
</linearGradient>
<linearGradient id="paint2_linear" x1="563.418" y1="540.186" x2="551.526" y2="569.917" gradientUnits="userSpaceOnUse">
<stop stop-color="#241084" stop-opacity="0.8"/>
<stop offset="0.9896" stop-color="#0A5DE2" stop-opacity="0"/>
</linearGradient>
</defs>
</svg>
