<svg width="48" height="48" viewBox="0 0 48 48" fill="none" xmlns="http://www.w3.org/2000/svg">
<path d="M43.2972 32.7327L36.5102 31.9578C34.8802 31.7708 33.277 32.3319 32.128 33.4809L27.2114 38.3975C19.6495 34.5497 13.4503 28.3773 9.60251 20.7886L14.5458 15.8453C15.6948 14.6963 16.2559 13.0931 16.0689 11.4631L15.294 4.72955C14.9733 2.03077 12.7021 0 9.9766 0H5.35394C2.33451 0 -0.177228 2.51174 0.00981575 5.53116C1.42601 28.3505 19.6762 46.574 42.4688 47.9902C45.4883 48.1772 48 45.6655 48 42.6461V38.0234C48.0267 35.3246 45.996 33.0534 43.2972 32.7327Z" fill="#363BAF"/>
</svg>
