<svg width="48" height="48" viewBox="0 0 48 48" fill="none" xmlns="http://www.w3.org/2000/svg">
<path d="M3.79596 9.18568L21.0854 22.8808C21.8694 23.5011 22.9498 23.7768 23.9991 23.7251C25.0468 23.7768 26.1272 23.5028 26.9112 22.8808L44.2006 9.18568C45.586 8.09496 45.2724 7.20068 43.5148 7.20068H24.0009H4.48692C2.72765 7.20068 2.41404 8.09496 3.79596 9.18568Z" fill="#363BAF"/>
<path d="M45.4498 12.7989L26.5562 27.1436C25.8497 27.6743 24.9244 27.9328 24.0026 27.9207C23.079 27.9328 22.1537 27.6726 21.4472 27.1436L2.55017 12.7989C1.14758 11.7358 0 12.3061 0 14.0654V37.601C0 39.3603 1.4405 40.8008 3.19977 40.8008H23.9991H44.8002C46.5595 40.8008 48 39.3603 48 37.601V14.0654C48 12.3061 46.8524 11.7358 45.4498 12.7989Z" fill="#363BAF"/>
</svg>
