<svg width="711" height="711" viewBox="0 0 711 711" fill="none" xmlns="http://www.w3.org/2000/svg">
<path d="M604.776 125.136H106.223C96.2694 125.136 88.164 133.241 88.164 143.195V486.466H622.836V143.195C622.836 133.241 614.731 125.136 604.776 125.136Z" fill="white"/>
<path d="M658.386 480.352H52.614C49.059 480.352 46.215 483.196 46.215 486.751V494.998C46.215 498.553 49.059 501.255 52.4718 501.255H658.244C661.799 501.255 664.501 498.411 664.501 494.998V486.751C664.785 483.196 661.941 480.352 658.386 480.352Z" fill="white"/>
<path d="M604.066 132.815H106.934C100.82 132.815 95.7006 137.792 95.7006 144.049V481.489H615.299V143.906C615.299 137.792 610.322 132.815 604.066 132.815Z" fill="#363BAF"/>
<path d="M596.529 157.7H114.329V469.402H596.529V157.7Z" fill="#2D2C56"/>
<path d="M358.202 146.75C358.202 148.315 356.922 149.452 355.5 149.452C354.078 149.452 352.798 148.172 352.798 146.75C352.798 145.186 354.078 144.049 355.5 144.049C356.922 144.049 358.202 145.328 358.202 146.75Z" fill="#F7F7F7"/>
<path d="M407.545 489.452H303.597C302.175 489.452 301.18 490.59 301.18 491.87C301.18 493.292 302.317 494.287 303.597 494.287H407.545C408.967 494.287 409.963 493.15 409.963 491.87C409.963 490.59 408.825 489.452 407.545 489.452Z" fill="#363BAF"/>
<g opacity="0.25">
<path opacity="0.25" d="M223.254 174.906H174.906V183.438H223.254V174.906Z" fill="#65D1A5"/>
<path opacity="0.25" d="M151.159 174.906H131.251V183.438H151.159V174.906Z" fill="white"/>
<path opacity="0.25" d="M151.159 190.548H131.251V199.08H151.159V190.548Z" fill="white"/>
<path opacity="0.25" d="M151.159 209.034H131.251V217.566H151.159V209.034Z" fill="white"/>
<path opacity="0.25" d="M151.159 227.52H131.251V236.052H151.159V227.52Z" fill="white"/>
<path opacity="0.25" d="M151.159 246.006H131.251V254.538H151.159V246.006Z" fill="white"/>
<path opacity="0.25" d="M151.159 264.492H131.251V273.024H151.159V264.492Z" fill="white"/>
<path opacity="0.25" d="M395.316 174.906H233.208V183.438H395.316V174.906Z" fill="#E0E4ED"/>
<g opacity="0.25">
<path opacity="0.25" d="M240.318 190.548H191.97V199.08H240.318V190.548Z" fill="#65D1A5"/>
<path opacity="0.25" d="M412.38 190.548H250.272V199.08H412.38V190.548Z" fill="#E0E4ED"/>
</g>
<g opacity="0.25">
<path opacity="0.25" d="M268.758 209.034H220.41V217.566H268.758V209.034Z" fill="#65D1A5"/>
<path opacity="0.25" d="M440.82 209.034H278.712V217.566H440.82V209.034Z" fill="#E0E4ED"/>
</g>
<g opacity="0.25">
<path opacity="0.25" d="M297.198 227.52H248.85V236.052H297.198V227.52Z" fill="#65D1A5"/>
<path opacity="0.25" d="M469.26 227.52H307.152V236.052H469.26V227.52Z" fill="#E0E4ED"/>
</g>
<g opacity="0.25">
<path opacity="0.25" d="M268.758 246.006H220.41V254.538H268.758V246.006Z" fill="#65D1A5"/>
<path opacity="0.25" d="M526.14 246.006H278.712V254.538H526.14V246.006Z" fill="#E0E4ED"/>
</g>
<g opacity="0.25">
<path opacity="0.25" d="M240.318 264.492H191.97V273.024H240.318V264.492Z" fill="#65D1A5"/>
<path opacity="0.25" d="M355.5 264.492H250.272V273.024H355.5V264.492Z" fill="#E0E4ED"/>
</g>
</g>
<g opacity="0.25">
<path opacity="0.25" d="M223.254 288.666H174.906V297.198H223.254V288.666Z" fill="#65D1A5"/>
<path opacity="0.25" d="M151.159 288.666H131.251V297.198H151.159V288.666Z" fill="white"/>
<path opacity="0.25" d="M151.159 304.308H131.251V312.84H151.159V304.308Z" fill="white"/>
<path opacity="0.25" d="M151.159 322.794H131.251V331.326H151.159V322.794Z" fill="white"/>
<path opacity="0.25" d="M151.159 341.28H131.251V349.812H151.159V341.28Z" fill="white"/>
<path opacity="0.25" d="M151.159 359.766H131.251V368.298H151.159V359.766Z" fill="white"/>
<path opacity="0.25" d="M151.159 378.252H131.251V386.784H151.159V378.252Z" fill="white"/>
<path opacity="0.25" d="M395.316 288.666H233.208V297.198H395.316V288.666Z" fill="#E0E4ED"/>
<g opacity="0.25">
<path opacity="0.25" d="M240.318 304.308H191.97V312.84H240.318V304.308Z" fill="#65D1A5"/>
<path opacity="0.25" d="M412.38 304.308H250.272V312.84H412.38V304.308Z" fill="#E0E4ED"/>
</g>
<g opacity="0.25">
<path opacity="0.25" d="M268.758 322.794H220.41V331.326H268.758V322.794Z" fill="#65D1A5"/>
<path opacity="0.25" d="M440.82 322.794H278.712V331.326H440.82V322.794Z" fill="#E0E4ED"/>
</g>
<path opacity="0.25" d="M223.254 402.426H174.906V410.958H223.254V402.426Z" fill="#65D1A5"/>
<path opacity="0.25" d="M151.159 402.426H131.251V410.958H151.159V402.426Z" fill="white"/>
<path opacity="0.25" d="M151.159 418.068H131.251V426.6H151.159V418.068Z" fill="white"/>
<path opacity="0.25" d="M151.159 436.554H131.251V445.086H151.159V436.554Z" fill="white"/>
<path opacity="0.25" d="M395.316 402.426H233.208V410.958H395.316V402.426Z" fill="#E0E4ED"/>
<g opacity="0.25">
<path opacity="0.25" d="M240.318 418.068H191.97V426.6H240.318V418.068Z" fill="#65D1A5"/>
<path opacity="0.25" d="M412.38 418.068H250.272V426.6H412.38V418.068Z" fill="#E0E4ED"/>
</g>
<g opacity="0.25">
<path opacity="0.25" d="M268.758 436.554H220.41V445.086H268.758V436.554Z" fill="#65D1A5"/>
<path opacity="0.25" d="M440.82 436.554H278.712V445.086H440.82V436.554Z" fill="#E0E4ED"/>
</g>
<g opacity="0.25">
<path opacity="0.25" d="M297.198 341.28H248.85V349.812H297.198V341.28Z" fill="#65D1A5"/>
<path opacity="0.25" d="M554.58 341.28H307.152V349.812H554.58V341.28Z" fill="#E0E4ED"/>
</g>
<g opacity="0.25">
<path opacity="0.25" d="M268.758 359.766H220.41V368.298H268.758V359.766Z" fill="#65D1A5"/>
<path opacity="0.25" d="M440.82 359.766H278.712V368.298H440.82V359.766Z" fill="#E0E4ED"/>
</g>
<g opacity="0.25">
<path opacity="0.25" d="M240.318 378.252H191.97V386.784H240.318V378.252Z" fill="#65D1A5"/>
<path opacity="0.25" d="M412.38 378.252H250.272V386.784H412.38V378.252Z" fill="#E0E4ED"/>
</g>
</g>
<path opacity="0.3" d="M198.796 480.352H179.883V501.255H198.796V480.352Z" fill="#737AFB"/>
<path opacity="0.3" d="M235.625 480.352H216.713V501.255H235.625V480.352Z" fill="#737AFB"/>
<path opacity="0.3" d="M517.466 480.352H498.553V501.255H517.466V480.352Z" fill="#737AFB"/>
<path opacity="0.3" d="M550.172 480.352H531.259V501.255H550.172V480.352Z" fill="#737AFB"/>
<path d="M208.181 563.681L208.323 573.919C208.323 573.919 207.043 580.46 206.048 587.428C205.052 594.396 204.199 601.79 205.337 603.639C207.47 607.052 211.594 603.639 212.305 600.226C213.016 596.813 214.011 575.341 214.011 575.341L214.722 561.548L208.181 563.681Z" fill="#2D2C56"/>
<path d="M197.658 562.259L199.222 571.502C199.222 571.502 202.351 596.671 200.644 600.511C198.938 604.35 193.392 602.644 193.676 597.382C193.961 592.263 192.681 573.919 192.681 573.919L189.553 562.828L197.658 562.259Z" fill="#2D2C56"/>
<path d="M201.924 449.921L202.635 461.297L173.342 475.375C168.08 478.219 165.521 484.333 167.227 490.163L187.42 565.387L197.516 562.259L188.557 493.007C187.988 488.741 190.832 484.76 195.098 484.049L205.479 482.485L216.571 471.251L203.773 482.769C200.644 485.613 199.08 489.737 199.649 493.861L207.896 563.681L216.997 565.956L221.121 497.131C221.405 492.723 224.392 489.026 228.515 487.746L246.575 482.058C249.419 480.352 251.267 477.223 251.267 473.81L250.556 449.636L201.924 449.921Z" fill="#37354C"/>
<path d="M252.547 475.375L247.712 381.38C247.712 381.38 227.662 380.243 221.832 380.243C218.561 380.243 213.016 381.807 208.75 383.229C204.626 384.509 201.213 384.367 199.222 388.206L166.374 451.058L186.566 452.907L193.25 445.228L189.837 440.109L202.066 411.242L199.649 463.714L252.547 475.375Z" fill="#EAD18C"/>
<path opacity="0.5" d="M201.64 399.724L179.883 438.971L186.709 446.935C186.709 446.935 189.41 447.503 192.112 446.65L193.25 445.228L189.837 440.109L202.066 411.242L201.64 399.724Z" fill="url(#paint0_linear)"/>
<path d="M227.662 396.738C234.203 396.738 239.607 391.334 239.607 384.793C239.607 383.513 239.323 382.234 239.038 380.954C232.924 380.669 225.103 380.243 221.832 380.243C220.41 380.243 218.419 380.527 216.428 381.096C216.002 382.234 215.86 383.513 215.86 384.793C215.717 391.334 221.121 396.738 227.662 396.738Z" fill="white"/>
<path d="M250.13 397.591L252.547 475.943L220.268 468.122L250.13 397.591Z" fill="url(#paint1_linear)"/>
<path d="M219.841 370.573C220.41 371.711 224.392 387.068 224.392 387.068C224.392 387.068 225.814 389.628 229.226 389.344C232.639 389.059 234.061 384.367 234.061 384.367L228.231 365.027L219.841 370.573Z" fill="#EEBCC5"/>
<path d="M240.602 361.046C240.602 371.711 229.369 383.371 218.704 383.371C208.039 383.371 202.208 371.569 202.208 361.046C202.208 350.381 210.883 341.849 221.405 341.849C231.928 341.849 240.602 350.381 240.602 361.046Z" fill="#EEBCC5"/>
<path d="M242.293 365.988C244.213 354.206 236.219 343.097 224.437 341.177C212.655 339.256 201.547 347.25 199.626 359.032C197.705 370.814 205.699 381.923 217.482 383.843C229.264 385.764 240.372 377.77 242.293 365.988Z" fill="#EEBCC5"/>
<path d="M205.621 378.679C203.062 378.679 200.218 376.546 199.364 373.844C198.796 372.422 198.938 371 199.649 370.147C200.218 369.293 201.213 368.867 202.493 368.867C205.052 368.867 207.896 371 208.75 373.702C209.318 375.124 209.176 376.546 208.465 377.399C207.754 378.252 206.759 378.679 205.621 378.679ZM202.351 369.578C201.355 369.578 200.644 370.004 200.218 370.573C199.649 371.284 199.649 372.422 200.075 373.702C200.929 376.119 203.488 377.968 205.621 377.968C206.617 377.968 207.328 377.541 207.754 376.972C208.323 376.261 208.323 375.124 207.896 373.844C207.185 371.426 204.626 369.578 202.351 369.578Z" fill="#EFF2F7"/>
<path d="M218.419 378.679C215.86 378.679 213.016 376.546 212.162 373.844C211.594 372.422 211.736 371 212.447 370.147C213.016 369.293 214.011 368.867 215.291 368.867C217.85 368.867 220.694 371 221.548 373.702C222.116 375.124 221.974 376.546 221.263 377.399C220.552 378.252 219.557 378.679 218.419 378.679ZM215.149 369.578C214.153 369.578 213.442 370.004 213.016 370.573C212.447 371.284 212.447 372.422 212.873 373.702C213.727 376.119 216.286 377.968 218.419 377.968C219.415 377.968 220.126 377.541 220.552 376.972C221.121 376.261 221.121 375.124 220.694 373.844C219.841 371.426 217.424 369.578 215.149 369.578Z" fill="#EFF2F7"/>
<path d="M207.896 374.981C208.181 375.55 208.181 376.261 207.754 376.546C207.328 376.83 206.759 376.546 206.332 375.835C206.048 375.266 206.048 374.555 206.474 374.27C206.901 374.128 207.47 374.413 207.896 374.981Z" fill="#2D2B42"/>
<path d="M217.566 375.408C217.85 375.977 217.85 376.688 217.424 376.972C216.997 377.257 216.428 376.972 216.002 376.261C215.717 375.692 215.717 374.981 216.144 374.697C216.571 374.555 217.139 374.839 217.566 375.408Z" fill="#2D2B42"/>
<path d="M224.96 466.416C224.107 466.132 216.997 462.719 212.02 462.719C207.043 462.719 200.786 467.98 200.786 467.98C200.786 467.98 199.933 470.824 203.346 470.255C206.759 469.687 202.919 472.388 202.919 472.388C202.919 472.388 203.062 472.531 207.043 473.099C211.025 473.668 226.24 472.815 226.24 472.815L224.96 466.416Z" fill="#EEBCC5"/>
<path d="M247.712 381.38L250.414 443.237L224.96 466.274L226.24 472.673L262.075 453.618C265.487 451.769 267.478 447.93 266.909 444.091L260.368 396.738C259.799 390.766 256.244 385.646 250.983 382.945L247.712 381.38Z" fill="#EAD18C"/>
<path d="M227.662 478.076H162.961V473.384H227.662C228.942 473.384 230.08 474.379 230.08 475.801C229.937 476.939 228.942 478.076 227.662 478.076Z" fill="white"/>
<path d="M209.888 478.076H147.462C144.76 478.076 142.343 476.228 141.632 473.526L130.54 432.004C129.545 428.164 132.389 424.325 136.37 424.325H190.833C193.535 424.325 195.952 426.173 196.663 428.875L209.888 478.076Z" fill="white"/>
<path d="M136.37 424.325C132.388 424.325 129.402 428.164 130.54 432.004L141.631 473.526C141.916 474.806 142.769 475.943 143.622 476.654L181.589 424.325H136.37Z" fill="url(#paint2_linear)"/>
<path d="M173.057 454.898C173.768 457.6 172.062 459.733 169.218 459.733C166.374 459.733 163.672 457.6 162.961 454.898C162.25 452.196 163.957 450.063 166.801 450.063C169.502 449.921 172.346 452.196 173.057 454.898Z" fill="#363BAF"/>
<path d="M220.979 340.996C209.887 340.996 200.786 349.385 199.507 360.193C203.204 363.037 208.181 364.174 212.731 363.463C218.135 362.468 223.112 358.771 225.387 353.794C225.245 356.211 225.103 358.628 225.387 361.046C225.814 363.463 226.809 365.738 228.658 367.303C228.8 365.596 228.942 363.89 229.795 362.468C230.648 361.046 232.497 360.05 234.061 360.619C235.199 361.046 235.91 362.183 236.052 363.463C236.194 364.601 235.91 365.881 235.483 367.018C234.772 368.725 233.777 370.431 232.497 371.853C235.057 372.28 237.758 372.564 240.318 372.28C241.74 369.436 242.451 366.307 242.451 362.894C242.593 350.665 232.924 340.996 220.979 340.996Z" fill="#363BAF"/>
<path d="M239.465 366.165C239.465 369.72 236.479 372.706 232.924 372.706C229.369 372.706 226.382 369.72 226.382 366.165C226.382 362.61 229.369 359.624 232.924 359.624C236.621 359.624 239.465 362.468 239.465 366.165Z" fill="#EEBCC5"/>
<path d="M197.658 562.259L198.796 569.084L191.97 571.359L189.979 564.534L197.658 562.259Z" fill="#EEBCC5"/>
<path d="M208.181 571.36L213.869 572.355L214.295 565.103L208.181 563.681V571.36Z" fill="#EEBCC5"/>
<path d="M501.966 563.681L501.824 573.919C501.824 573.919 503.104 580.46 504.099 587.428C505.094 594.396 505.948 601.79 504.81 603.639C502.677 607.052 498.553 603.639 497.842 600.226C497.131 596.813 496.136 575.341 496.136 575.341L495.425 561.548L501.966 563.681Z" fill="#2D2C56"/>
<path d="M512.489 562.259L510.925 571.502C510.925 571.502 507.796 596.671 509.503 600.511C511.209 604.35 516.755 602.644 516.47 597.382C516.186 592.263 517.466 573.919 517.466 573.919L520.594 562.828L512.489 562.259Z" fill="#2D2C56"/>
<path d="M508.223 449.921L507.512 461.297L536.805 475.375C542.066 478.219 544.626 484.333 542.92 490.163L522.727 565.387L512.631 562.259L521.59 493.007C522.158 488.741 519.314 484.76 515.048 484.049L504.668 482.485L493.576 471.251L506.374 482.769C509.503 485.613 511.067 489.737 510.498 493.861L502.25 563.681L493.15 565.956L489.026 497.131C488.741 492.723 485.755 489.026 481.631 487.746L463.572 482.058C460.728 480.352 458.879 477.223 458.879 473.81L459.59 449.636L508.223 449.921Z" fill="#363BAF"/>
<path d="M457.6 475.375L462.434 381.38C462.434 381.38 482.485 380.243 488.315 380.243C491.585 380.243 497.131 381.807 501.397 383.229C505.521 384.509 508.934 384.367 510.925 388.206L543.773 451.058L523.58 452.907L516.897 445.228L520.31 440.109L508.081 411.242L510.498 463.572L457.6 475.375Z" fill="#D98E9D"/>
<path opacity="0.5" d="M508.507 399.724L530.264 438.971L523.438 446.935C523.438 446.935 520.736 447.503 518.035 446.65L516.897 445.228L520.31 440.109L508.081 411.242L508.507 399.724Z" fill="url(#paint3_linear)"/>
<path d="M489.168 408.541C482.627 408.541 470.398 391.334 470.398 384.651C470.398 383.371 470.682 382.091 470.966 380.812C477.081 380.527 484.902 380.101 488.173 380.101C489.595 380.101 491.585 380.385 493.576 380.954C494.003 382.091 494.145 383.371 494.145 384.651C494.429 391.334 495.709 408.541 489.168 408.541Z" fill="white"/>
<path d="M460.017 397.591L457.6 475.943L489.879 468.122L460.017 397.591Z" fill="url(#paint4_linear)"/>
<path d="M490.306 370.573C489.737 371.711 485.755 387.068 485.755 387.068C485.755 387.068 484.333 389.628 480.92 389.344C477.508 389.059 476.086 384.367 476.086 384.367L481.916 365.027L490.306 370.573Z" fill="#EEBCC5"/>
<path d="M469.544 361.046C469.544 371.711 480.778 383.371 491.443 383.371C502.108 383.371 507.938 371.569 507.938 361.046C507.938 350.381 499.264 341.849 488.741 341.849C478.219 341.849 469.544 350.381 469.544 361.046Z" fill="#EEBCC5"/>
<path d="M492.651 383.982C504.434 382.061 512.428 370.952 510.507 359.17C508.586 347.388 497.478 339.394 485.696 341.315C473.914 343.235 465.92 354.344 467.84 366.126C469.761 377.908 480.869 385.902 492.651 383.982Z" fill="#EEBCC5"/>
<path d="M503.388 374.413C502.961 375.124 502.961 375.977 503.53 376.261C504.099 376.546 504.81 376.261 505.237 375.408C505.663 374.697 505.663 373.844 505.094 373.559C504.668 373.275 503.815 373.559 503.388 374.413Z" fill="#2D2B42"/>
<path d="M492.581 375.55C492.154 376.403 492.154 377.257 492.723 377.683C493.292 377.968 494.145 377.541 494.572 376.83C494.998 375.977 494.998 375.124 494.429 374.697C493.861 374.27 493.007 374.697 492.581 375.55Z" fill="#2D2B42"/>
<path d="M485.186 466.416C486.04 466.132 493.15 462.719 498.127 462.719C503.104 462.719 509.36 467.98 509.36 467.98C509.36 467.98 510.214 470.824 506.801 470.255C503.388 469.687 507.227 472.388 507.227 472.388C507.227 472.388 507.085 472.531 503.104 473.099C499.122 473.668 483.907 472.815 483.907 472.815L485.186 466.416Z" fill="#EEBCC5"/>
<path d="M462.292 381.38L459.59 443.237L485.044 466.274L483.764 472.673L448.072 453.618C444.659 451.769 442.669 447.93 443.237 444.091L449.779 396.738C450.347 390.766 453.902 385.646 459.164 382.945L462.292 381.38Z" fill="#D98E9D"/>
<path d="M482.485 478.077H547.186V473.384H482.485C481.205 473.384 480.067 474.379 480.067 475.801C480.209 476.939 481.205 478.077 482.485 478.077Z" fill="white"/>
<path d="M500.26 478.076H562.685C565.387 478.076 567.805 476.228 568.516 473.526L579.607 432.004C580.603 428.164 577.759 424.325 573.777 424.325H519.314C516.613 424.325 514.195 426.173 513.484 428.875L500.26 478.076Z" fill="white"/>
<path d="M573.777 424.325C577.759 424.325 580.745 428.164 579.607 432.004L568.516 473.526C568.231 474.806 567.378 475.943 566.525 476.654L528.557 424.325H573.777Z" fill="url(#paint5_linear)"/>
<path d="M537.089 454.898C536.378 457.6 538.085 459.733 540.929 459.733C543.773 459.733 546.475 457.6 547.186 454.898C547.897 452.196 546.19 450.063 543.346 450.063C540.502 449.921 537.8 452.196 537.089 454.898Z" fill="#363BAF"/>
<path d="M489.168 340.996C500.26 340.996 509.36 349.385 510.64 360.193C506.943 363.037 501.966 364.174 497.416 363.463C492.012 362.468 487.035 358.771 484.76 353.794C484.902 356.211 485.044 358.628 484.76 361.046C484.333 363.463 483.338 365.738 481.489 367.303C481.347 365.596 481.205 363.89 480.352 362.468C479.498 361.046 477.65 360.05 476.086 360.619C474.948 361.046 474.237 362.183 474.095 363.463C473.953 364.601 474.237 365.881 474.664 367.018C475.375 368.725 476.37 370.431 477.65 371.853C475.09 372.28 472.388 372.564 469.829 372.28C468.407 369.436 467.696 366.307 467.696 362.894C467.554 350.665 477.223 340.996 489.168 340.996Z" fill="#363BAF"/>
<path d="M470.54 366.165C470.54 369.72 473.526 372.706 477.081 372.706C480.636 372.706 483.622 369.72 483.622 366.165C483.622 362.61 480.636 359.624 477.081 359.624C473.526 359.624 470.54 362.468 470.54 366.165Z" fill="#EEBCC5"/>
<path d="M512.489 562.259L511.209 569.084L518.177 571.36L520.025 564.534L512.489 562.259Z" fill="#EEBCC5"/>
<path d="M501.966 571.36L496.278 572.355L495.851 565.103L501.966 563.681V571.36Z" fill="#EEBCC5"/>
<path d="M477.223 352.94C484.92 352.94 491.159 346.701 491.159 339.005C491.159 331.308 484.92 325.069 477.223 325.069C469.527 325.069 463.288 331.308 463.288 339.005C463.288 346.701 469.527 352.94 477.223 352.94Z" fill="#363BAF"/>
<path opacity="0.3" d="M338.294 480.352H319.381V501.255H338.294V480.352Z" fill="#737AFB"/>
<path opacity="0.3" d="M404.275 481.489H385.362V501.255H404.275V481.489Z" fill="#737AFB"/>
<path d="M346.684 344.124L339.005 353.509L335.165 361.472L331.61 371.569C331.61 371.569 325.354 377.399 325.78 377.399C326.207 377.399 325.354 384.509 326.065 385.504C326.776 386.5 333.743 394.889 333.743 394.889C333.743 394.889 340.569 399.298 343.271 399.866C345.973 400.435 359.624 406.408 359.624 406.408L368.014 398.444L364.885 394.321C364.885 394.321 373.559 389.059 374.697 388.348C375.692 387.637 379.958 383.513 379.958 383.513C379.958 383.513 379.816 379.816 379.105 377.541C378.536 375.124 374.27 363.605 374.27 363.605C374.27 363.605 368.725 355.642 368.014 354.22C367.303 352.798 364.174 348.248 364.174 348.248L346.684 344.124Z" fill="#37354C"/>
<path d="M380.527 455.04L327.06 455.467L326.633 401.004C326.633 397.733 329.193 395.174 332.464 395.174L374.413 394.889C377.683 394.889 380.243 397.449 380.243 400.72L380.527 455.04Z" fill="#363BAF"/>
<path d="M343.129 395.032C343.129 395.032 347.11 399.724 347.11 409.536C347.11 419.348 347.395 437.265 347.395 437.265H359.339V408.967C359.339 408.967 358.344 399.298 366.023 391.903L352.94 392.188L343.129 395.032Z" fill="#37354C"/>
<path d="M352.94 406.408C349.385 406.408 346.399 403.564 346.399 400.009L346.257 380.243C346.257 379.816 346.684 379.39 347.11 379.39L358.344 379.247C358.771 379.247 359.197 379.674 359.197 380.101L359.339 399.866C359.339 403.421 356.495 406.408 352.94 406.408Z" fill="#EEBCC5"/>
<path d="M375.55 375.55C375.55 375.266 375.55 375.124 375.55 374.839C375.55 372.848 375.266 371 374.839 369.151V366.592C374.839 354.22 364.743 343.982 352.229 343.982C339.858 343.982 329.62 354.078 329.62 366.592V375.408H375.55V375.55Z" fill="#9B5342"/>
<path d="M373.133 369.293V367.16C373.133 355.642 363.748 346.399 352.372 346.399C340.853 346.399 331.61 355.784 331.61 367.16V375.692C331.61 376.261 331.61 376.83 331.753 377.399C333.175 387.779 341.991 395.743 352.656 395.743C364.316 395.743 373.844 386.215 373.844 374.555C373.844 372.706 373.559 371 373.133 369.293Z" fill="#EEBCC5"/>
<path d="M345.973 378.252C345.973 379.105 345.262 379.816 344.408 379.816C343.555 379.816 342.844 379.105 342.844 378.252C342.844 377.399 343.555 376.688 344.408 376.688C345.119 376.688 345.973 377.399 345.973 378.252Z" fill="#37354C"/>
<path d="M361.188 378.252C361.188 379.105 360.477 379.816 359.624 379.816C358.771 379.816 358.06 379.105 358.06 378.252C358.06 377.399 358.771 376.688 359.624 376.688C360.335 376.688 361.188 377.399 361.188 378.252Z" fill="#37354C"/>
<path d="M337.441 377.541C337.441 380.812 334.739 383.371 331.61 383.371C328.34 383.371 325.78 380.669 325.78 377.541C325.78 374.413 328.482 371.711 331.61 371.711C334.881 371.569 337.441 374.27 337.441 377.541Z" fill="#EEBCC5"/>
<path d="M378.963 377.541C378.963 380.812 376.261 383.371 373.133 383.371C369.862 383.371 367.303 380.669 367.303 377.541C367.303 374.413 370.004 371.711 373.133 371.711C376.403 371.569 378.963 374.27 378.963 377.541Z" fill="#EEBCC5"/>
<path d="M353.936 479.072L327.629 491.443L332.464 571.502H323.078L304.024 489.452C303.17 485.897 304.735 482.058 307.863 480.067L332.748 464.852L353.936 479.072Z" fill="#BCBACE"/>
<path d="M331.468 373.702C329.477 373.844 327.913 375.55 327.913 377.541C327.913 379.532 329.477 381.238 331.468 381.38V373.702Z" fill="#D98E9D"/>
<path d="M372.706 373.702C374.697 373.844 376.261 375.55 376.261 377.541C376.261 379.532 374.697 381.238 372.706 381.38V373.702Z" fill="#D98E9D"/>
<path d="M359.482 411.385H347.395V475.943H359.482V411.385Z" fill="#37354C"/>
<path d="M366.876 369.293C367.445 371.142 368.298 373.133 370.004 373.702C371.426 374.128 372.848 373.275 374.128 372.564C374.839 372.137 375.55 371.569 375.55 370.715C375.692 370.004 375.266 369.436 374.981 368.725C373.702 366.449 372.422 364.032 370.715 362.183C369.151 360.477 366.307 357.633 364.743 360.619C363.748 362.468 366.307 367.303 366.876 369.293Z" fill="#37354C"/>
<path d="M369.151 355.927C364.601 352.514 358.913 350.523 352.656 350.523L352.94 346.826C346.826 346.826 340.853 352.514 336.303 355.927C340.285 360.477 346.115 364.743 352.798 364.743C359.197 364.743 365.17 360.477 369.151 355.927Z" fill="#37354C"/>
<path d="M297.34 444.233C296.487 443.095 296.345 441.673 296.629 440.251C299.615 428.164 321.23 399.866 322.083 398.729C323.505 396.88 330.899 395.316 330.899 395.316L331.753 414.797L312.271 437.692C310.991 439.256 310.707 441.247 311.56 443.095L326.918 474.379L318.812 476.654L297.34 444.233Z" fill="#363BAF"/>
<path d="M367.445 464.852L392.33 480.067C395.458 482.058 397.022 485.755 396.169 489.452L377.114 571.502H367.729L372.564 491.443L346.257 479.072L367.445 464.852Z" fill="#BCBACE"/>
<path d="M406.265 443.664C406.834 442.526 407.119 441.247 406.834 440.109C404.417 428.306 385.22 400.009 384.224 398.729C382.802 396.88 375.408 395.316 375.408 395.316L374.555 414.797L391.334 437.123C392.472 438.687 392.756 440.536 392.045 442.384L379.39 474.379L387.495 476.654L406.265 443.664Z" fill="#363BAF"/>
<path d="M337.867 369.293C337.298 371.142 336.445 373.133 334.739 373.702C333.317 374.128 331.895 373.275 330.615 372.564C329.904 372.137 329.193 371.569 329.193 370.715C329.051 370.004 329.477 369.436 329.762 368.725C331.042 366.449 332.321 364.032 334.028 362.183C335.592 360.477 338.436 357.633 340 360.619C340.996 362.468 338.436 367.303 337.867 369.293Z" fill="#37354C"/>
<path d="M330.757 474.521C330.757 478.219 327.771 481.347 323.932 481.347C320.092 481.347 317.106 478.361 317.106 474.521C317.106 470.824 320.092 467.696 323.932 467.696C327.771 467.696 330.757 470.824 330.757 474.521Z" fill="#EEBCC5"/>
<path d="M371.142 350.381C368.298 343.129 352.798 340.569 352.656 340.569C352.514 340.569 336.872 343.129 334.17 350.381C331.326 357.775 323.078 378.252 323.363 383.94C323.647 389.486 333.886 395.174 333.886 395.174H343.271C343.271 395.174 329.335 385.789 327.913 381.523C326.491 377.399 331.753 372.848 333.175 371.711C339.005 361.757 344.693 355.642 348.39 352.229C350.807 349.954 354.647 349.954 357.064 352.229C360.761 355.642 366.449 361.757 372.28 371.711C373.702 372.848 378.821 377.399 377.541 381.523C376.119 385.646 363.605 395.032 363.605 395.032H371.569C371.569 395.032 381.665 389.486 382.091 383.798C382.234 378.252 373.844 357.633 371.142 350.381Z" fill="#363BAF"/>
<path d="M389.912 475.801C390.197 472.104 387.353 468.833 383.513 468.691C379.816 468.407 376.546 471.251 376.403 475.09C376.119 478.787 378.963 482.058 382.802 482.2C386.357 482.342 389.628 479.498 389.912 475.801Z" fill="#EEBCC5"/>
<path d="M379.816 445.086V474.237C379.816 474.237 363.321 480.352 361.046 480.067C358.628 479.783 358.628 454.187 358.628 454.187L361.615 446.366L379.816 445.086Z" fill="#363BAF"/>
<path d="M327.06 445.086V474.237C327.06 474.237 343.555 480.352 345.83 480.067C348.248 479.783 348.248 454.187 348.248 454.187L345.262 446.366L327.06 445.086Z" fill="#363BAF"/>
<path d="M332.464 571.502L333.743 583.447C333.743 583.447 321.656 603.497 316.822 604.066C311.987 604.492 314.12 596.102 316.822 592.263C319.523 588.424 324.927 580.318 324.927 580.318L326.918 571.644H332.464V571.502Z" fill="#2D2C56"/>
<path d="M369.578 571.502L368.298 583.447C368.298 583.447 380.385 603.497 385.22 604.066C390.055 604.492 387.922 596.102 385.22 592.263C382.518 588.424 377.114 580.318 377.114 580.318L375.124 571.644H369.578V571.502Z" fill="#2D2C56"/>
<path d="M323.078 482.485H384.651C386.926 482.485 389.059 480.92 389.486 478.645L394.747 456.32C395.458 452.054 392.188 448.072 387.779 448.072L317.248 448.641C312.84 448.641 309.569 452.623 310.423 457.031L318.244 479.214C319.097 481.205 320.945 482.485 323.078 482.485Z" fill="white"/>
<path d="M360.761 448.357L317.248 448.641C312.84 448.641 309.569 452.623 310.423 457.031L318.244 479.214C318.955 481.205 320.803 482.485 322.936 482.485H334.028L360.761 448.357Z" fill="url(#paint6_linear)"/>
<path d="M351.945 473.953C355.401 473.953 358.202 471.406 358.202 468.265C358.202 465.123 355.401 462.577 351.945 462.577C348.489 462.577 345.688 465.123 345.688 468.265C345.688 471.406 348.489 473.953 351.945 473.953Z" fill="#363BAF"/>
<defs>
<linearGradient id="paint0_linear" x1="179.907" y1="423.404" x2="202.069" y2="423.404" gradientUnits="userSpaceOnUse">
<stop stop-color="#EAD18C" stop-opacity="0"/>
<stop offset="1" stop-color="#524F63" stop-opacity="0.7"/>
</linearGradient>
<linearGradient id="paint1_linear" x1="186.885" y1="462.267" x2="308.535" y2="414.149" gradientUnits="userSpaceOnUse">
<stop stop-color="#EAD18C" stop-opacity="0"/>
<stop offset="1" stop-color="#524F63" stop-opacity="0.7"/>
</linearGradient>
<linearGradient id="paint2_linear" x1="181.409" y1="450.926" x2="73.5204" y2="448.377" gradientUnits="userSpaceOnUse">
<stop stop-color="#484EC2" stop-opacity="0"/>
<stop offset="1" stop-color="#444BCC" stop-opacity="0.5"/>
</linearGradient>
<linearGradient id="paint3_linear" x1="530.202" y1="423.404" x2="508.04" y2="423.404" gradientUnits="userSpaceOnUse">
<stop stop-color="#D37897" stop-opacity="0"/>
<stop offset="0.8988" stop-color="#BC547C"/>
</linearGradient>
<linearGradient id="paint4_linear" x1="523.224" y1="462.267" x2="401.574" y2="414.149" gradientUnits="userSpaceOnUse">
<stop stop-color="#D37897" stop-opacity="0"/>
<stop offset="0.8988" stop-color="#BC547C"/>
</linearGradient>
<linearGradient id="paint5_linear" x1="528.7" y1="450.926" x2="636.589" y2="448.377" gradientUnits="userSpaceOnUse">
<stop stop-color="#484EC2" stop-opacity="0"/>
<stop offset="1" stop-color="#444BCC" stop-opacity="0.5"/>
</linearGradient>
<linearGradient id="paint6_linear" x1="342.662" y1="465.225" x2="278.897" y2="466.731" gradientUnits="userSpaceOnUse">
<stop stop-color="#484EC2" stop-opacity="0"/>
<stop offset="1" stop-color="#444BCC" stop-opacity="0.5"/>
</linearGradient>
</defs>
</svg>
