<svg width="48" height="48" viewBox="0 0 48 48" fill="none" xmlns="http://www.w3.org/2000/svg">
<path d="M0.847821 23.1432L11.908 27.2712L16.1889 41.0388C16.4629 41.9205 17.5411 42.2464 18.2568 41.6613L24.4219 36.6354C25.0681 36.1088 25.9886 36.0826 26.664 36.5728L37.7837 44.646C38.5493 45.2024 39.6339 44.7829 39.8259 43.8578L47.9717 4.67524C48.1813 3.66468 47.1883 2.82164 46.2261 3.1938L0.834862 20.7044C-0.285298 21.1364 -0.275538 22.7223 0.847821 23.1432ZM15.499 25.0738L37.1147 11.7607C37.5032 11.5221 37.9029 12.0474 37.5693 12.3568L19.7301 28.9392C19.103 29.5229 18.6985 30.304 18.584 31.1519L17.9763 35.6552C17.8958 36.2565 17.0512 36.3162 16.8853 35.7343L14.5481 27.5223C14.2805 26.5856 14.6705 25.5852 15.499 25.0738Z" fill="#363BAF"/>
</svg>
