<svg width="40" height="40" viewBox="0 0 40 40" fill="none" xmlns="http://www.w3.org/2000/svg">
<path d="M23.3333 10V6.66668H16.6666V10H23.3333ZM6.66665 15V30C6.66665 30.9167 7.41665 31.6667 8.33331 31.6667H31.6666C32.5833 31.6667 33.3333 30.9167 33.3333 30V15C33.3333 14.0833 32.5833 13.3333 31.6666 13.3333H8.33331C7.41665 13.3333 6.66665 14.0833 6.66665 15ZM33.3333 10C35.1833 10 36.6666 11.4833 36.6666 13.3333V31.6667C36.6666 33.5167 35.1833 35 33.3333 35H6.66665C4.81665 35 3.33331 33.5167 3.33331 31.6667L3.34998 13.3333C3.34998 11.4833 4.81665 10 6.66665 10H13.3333V6.66668C13.3333 4.81668 14.8166 3.33334 16.6666 3.33334H23.3333C25.1833 3.33334 26.6666 4.81668 26.6666 6.66668V10H33.3333Z" fill="#F7F5EF"/>
</svg>
